<?xml version="1.0" standalone="no"?><!DOCTYPE svg PUBLIC "-//W3C//DTD SVG 1.1//EN" "http://www.w3.org/Graphics/SVG/1.1/DTD/svg11.dtd"><svg t="1706083307020" class="icon" viewBox="0 0 1024 1024" version="1.1" xmlns="http://www.w3.org/2000/svg" p-id="5100" xmlns:xlink="http://www.w3.org/1999/xlink" width="200" height="200"><path d="M997.77 745.34L766.02 512.56l223.32-224.31c33.72-33.85 33.72-86.76 0-120.61L856.61 34.32c-33.7-33.86-86.37-33.86-120.09 0l-223.33 224.3L281.45 25.84c-33.72-33.85-86.38-33.85-120.09 0L26.52 161.28c-33.7 33.86-33.7 86.76 0 120.63l231.75 232.77L66.55 707.25c-12.63 12.7-31.6 95.22-54.77 241.24v2.11c0 16.93 6.32 33.85 16.85 46.54 10.53 12.71 29.49 19.05 46.35 16.94h2.1c147.49-23.28 229.65-42.33 244.4-57.14l191.71-192.56 231.76 232.77c33.71 33.86 86.38 33.86 120.08 0l134.84-135.43c31.61-29.62 31.61-84.64-2.1-116.38zM760.82 81.5c15.72-15.78 41.26-15.78 55 0l125.73 126.28c15.71 15.79 15.71 41.44 0 55.25l-62.86 63.14-180.72-183.5 62.85-61.17zM219.71 396.63l97.92-98.36c7.82-7.87 7.82-19.67 0-27.54-7.84-7.87-19.58-7.87-27.43 0l-97.92 98.36-48.96-49.18 97.93-98.36c7.83-7.86 7.83-19.67 0-27.53-7.84-7.87-19.59-7.87-27.42 0l-97.93 98.35-41.12-41.31c-15.66-15.73-15.66-39.35 0-55.08l125.33-125.9c15.67-15.74 39.17-15.74 54.84 0l215.43 216.38L290.2 467.44l-70.49-70.81zM88.67 949c-8.38 0-15.08-6.73-15.08-15.14 10.05-63.92 23.45-137.93 33.49-166.52l147.37 148.01c-28.47 10.1-100.48 23.56-165.78 33.65z m235.88-66.96l-182-182.83 514.37-516.7 182 182.82-514.37 516.71z m623.4-54.85L826.47 949.22c-15.19 15.25-37.96 15.25-53.15 0l-53.15-53.39 94.91-95.32c7.6-7.63 7.6-19.07 0-26.7-7.59-7.63-18.99-7.63-26.57 0l-94.91 95.34-58.85-59.12 94.92-95.32c7.6-7.63 7.6-19.06 0-26.68-7.59-7.63-18.99-7.63-26.58 0l-94.91 95.33-41.76-41.95L741.06 566l208.8 209.73c13.27 13.34 13.27 36.21-1.91 51.46z" p-id="5101"></path></svg>